<svg xmlns="http://www.w3.org/2000/svg" xmlns:xlink="http://www.w3.org/1999/xlink" viewBox="0,0,256,256" width="48px" height="48px" fill-rule="nonzero"><g fill="#157960" fill-rule="nonzero" stroke="none" stroke-width="1" stroke-linecap="butt" stroke-linejoin="miter" stroke-miterlimit="10" stroke-dasharray="" stroke-dashoffset="0" font-family="none" font-weight="none" font-size="none" text-anchor="none" style="mix-blend-mode: normal"><g transform="scale(10.66667,10.66667)"><path d="M12.89063,3c-0.507,0 -0.93228,0.38177 -0.98828,0.88477l-1.7793,16.01172c-0.066,0.589 0.39433,1.10352 0.98633,1.10352c0.506,0 0.93228,-0.38177 0.98828,-0.88477l1.7793,-16.01172c0.066,-0.589 -0.39433,-1.10352 -0.98633,-1.10352zM5.70703,6.70703c-0.256,0 -0.51203,0.09797 -0.70703,0.29297l-4.29297,4.29297c-0.391,0.391 -0.391,1.02406 0,1.41406l4.29297,4.29297c0.39,0.39 1.02406,0.39 1.41406,0c0.39,-0.39 0.39,-1.02406 0,-1.41406l-3.58594,-3.58594l3.58594,-3.58594c0.391,-0.39 0.391,-1.02406 0,-1.41406c-0.195,-0.195 -0.45103,-0.29297 -0.70703,-0.29297zM18.29297,6.70703c-0.256,0 -0.51203,0.09797 -0.70703,0.29297c-0.39,0.39 -0.39,1.02406 0,1.41406l3.58594,3.58594l-3.58594,3.58594c-0.39,0.39 -0.39,1.02406 0,1.41406c0.39,0.39 1.02406,0.39 1.41406,0l4.29297,-4.29297c0.391,-0.391 0.391,-1.02406 0,-1.41406l-4.29297,-4.29297c-0.195,-0.195 -0.45103,-0.29297 -0.70703,-0.29297z"></path></g></g></svg>