<svg xmlns="http://www.w3.org/2000/svg"  viewBox="0 0 100 100" width="16px" height="16px"><path fill="#ffa340" d="m50,16.87c-15.79,0-35.78,12.62-35.78,34.8,0,11.04,16.02,19.99,35.78,19.99s35.78-8.95,35.78-19.99c0-22.17-19.99-34.8-35.78-34.8Z"/><path fill="#ffa340" d="m26.52,10.16c-.86-.15-1.71.19-2.26.87-3.74,4.58-5.58,11.25-4.47,18.27,1.87,11.77,11.33,20.06,21.14,18.5,3.22-.51,6.08-2.02,8.4-4.24.56-.54.86-1.31.73-2.08-.37-2.32-.93-4.7-1.7-7.09-4.22-13.16-13.22-22.73-21.84-24.22Z"/><path fill="#ffa340" d="m73.48,10.16c.86-.15,1.71.19,2.26.87,3.74,4.58,5.58,11.25,4.47,18.27-1.87,11.77-11.33,20.06-21.14,18.5-3.22-.51-6.08-2.02-8.4-4.24-.56-.54-.86-1.31-.73-2.08.37-2.32.93-4.7,1.7-7.09,4.22-13.16,13.22-22.73,21.84-24.22Z"/><path fill="#ffa340" d="m78.86,89.88c1.86,0,3.31-1.66,3.02-3.5-3.52-23.12-16.46-40.27-31.89-40.27s-28.36,17.15-31.89,40.27c-.28,1.84,1.16,3.5,3.02,3.5h57.72Z"/><path fill="#fb7369" d="m34.49,20.58c-2.23-2.37-4.56-4.13-6.76-5.2-.6-.29-1.31-.04-1.6.55-1.67,3.39-2.31,7.53-1.76,11.7,3.01-2.93,6.47-5.29,10.12-7.05Z"/><circle cx="34.33" cy="45.55" r="7.51" fill="#fff"/><circle cx="34.33" cy="45.55" r="3.41" fill="#4a254b"/><path fill="#4a254b" d="m50,47.59c-1.03-.02-2.01.08-2.95.28-1.23.26-1.81,1.69-1.09,2.72.79,1.12,1.76,2.15,2.96,3.04.64.48,1.51.48,2.15,0,1.2-.9,2.17-1.92,2.96-3.04.73-1.03.15-2.46-1.09-2.72-.94-.2-1.92-.3-2.95-.28Z"/><path fill="#4a254b" d="m45.9,58.5c-2.11,0-3.97-1.27-4.75-3.24-.2-.51.05-1.09.57-1.3.51-.2,1.1.05,1.3.57.47,1.19,1.6,1.97,2.88,1.97,1.71,0,3.1-1.39,3.1-3.1,0-.55.45-1,1-1s1,.45,1,1c0,2.81-2.29,5.1-5.1,5.1Z"/><path fill="#4a254b" d="m54.1,58.5c-2.81,0-5.1-2.29-5.1-5.1,0-.55.45-1,1-1s1,.45,1,1c0,1.71,1.39,3.1,3.1,3.1,1.28,0,2.42-.77,2.88-1.97.2-.51.78-.77,1.3-.57.51.2.77.78.57,1.3-.77,1.97-2.63,3.24-4.75,3.24Z"/><circle cx="64.31" cy="45.55" r="7.51" fill="#fff"/><circle cx="64.31" cy="45.55" r="3.41" fill="#4a254b"/><path fill="#4a254b" d="m12,54.74c-.24,0-.45-.17-.49-.41-.05-.27.13-.53.4-.58,4.44-.81,8.81-1.14,12.98-.99.28,0,.49.24.48.52,0,.28-.26.48-.52.48-4.1-.15-8.39.18-12.76.98-.03,0-.06,0-.09,0Z"/><path fill="#4a254b" d="m13.24,62.16c-.18,0-.36-.1-.45-.28-.12-.25-.02-.55.23-.67,4.38-2.16,8.35-3.78,12.15-4.94.26-.08.54.07.62.33s-.07.54-.33.62c-3.74,1.15-7.67,2.75-12,4.88-.07.04-.15.05-.22.05Z"/><path fill="#4a254b" d="m88,54.74s-.06,0-.1,0c-4.07-.81-8.24-1.12-12.76-.98-.27-.03-.51-.21-.52-.48,0-.28.21-.51.48-.52,4.6-.15,8.84.17,12.98,1,.27.05.45.32.39.59-.05.24-.26.4-.49.4Z"/><path fill="#4a254b" d="m86.76,62.16c-.08,0-.17-.02-.25-.07-3.57-2.04-7.48-3.63-11.96-4.86-.27-.07-.42-.35-.35-.62.07-.27.35-.42.61-.35,4.55,1.25,8.54,2.87,12.19,4.96.24.14.32.44.19.68-.09.16-.26.25-.43.25Z"/><path fill="#4a254b" d="m50,72.38c-6.78,0-13.41-1.03-19.19-2.99-.26-.09-.4-.37-.31-.63.09-.26.37-.4.63-.31,5.67,1.92,12.19,2.94,18.87,2.94,9.52,0,18.52-2.03,25.34-5.73.24-.13.55-.04.68.2.13.24.04.55-.2.68-6.96,3.77-16.13,5.85-25.81,5.85Z"/><path fill="#4a254b" d="m37.12,89.27c-.22,0-.42-.15-.48-.37l-1.82-6.66c-.07-.27.08-.54.35-.61.26-.07.54.08.61.35l1.82,6.66c.07.27-.08.54-.35.61-.04.01-.09.02-.13.02Z"/><path fill="#4a254b" d="m62.88,89.27s-.09,0-.13-.02c-.27-.07-.42-.35-.35-.61l1.82-6.66c.07-.27.35-.42.61-.35.27.07.42.35.35.61l-1.82,6.66c-.06.22-.26.37-.48.37Z"/><path fill="#fb7369" d="m75.64,27.63c.54-4.17-.09-8.31-1.76-11.7-.3-.6-1-.85-1.6-.55-2.2,1.07-4.53,2.83-6.76,5.2,3.65,1.75,7.12,4.12,10.12,7.05Z"/></svg>