<svg xmlns="http://www.w3.org/2000/svg" xmlns:xlink="http://www.w3.org/1999/xlink" viewBox="0,0,256,256" width="24px" height="24px" fill-rule="nonzero"><g fill="#ffffff" fill-rule="nonzero" stroke="none" stroke-width="1" stroke-linecap="butt" stroke-linejoin="miter" stroke-miterlimit="10" stroke-dasharray="" stroke-dashoffset="0" font-family="none" font-weight="none" font-size="none" text-anchor="none" style="mix-blend-mode: normal"><g transform="scale(10.66667,10.66667)"><path d="M3,1v7h-2v9h2v3h3v2h12v-2h3v-3h2v-9h-2v-7h-3v2h-2v2h-8v-2h-2v-2zM21,20v2h2v-2zM18,22v2h2v-2zM6,22h-2v2h2zM3,20h-2v2h2zM7,11h2v2h-2zM15,11h2v2h-2zM10,15h4v2h-1v3h-2v-3h-1z"></path></g></g></svg>