<svg xmlns="http://www.w3.org/2000/svg"  viewBox="0 0 24 24" width="24px" height="24px"><path d="M 6 3 C 4.343 3 3 4.343 3 6 L 3 18 C 3 19.657 4.343 21 6 21 L 18 21 C 19.657 21 21 19.657 21 18 L 21 6 C 21 4.343 19.657 3 18 3 L 6 3 z M 11 6 L 12.5 6 C 13.328 6 14 6.672 14 7.5 C 14 8.328 13.328 9 12.5 9 L 12 9 L 12 11 L 11 11 L 11 6 z M 15.345703 6 L 16.646484 6 L 18 11 L 16.9375 11 L 16.679688 10 L 15.310547 10 L 15.052734 11 L 14 11 L 15.345703 6 z M 8.0351562 6.0019531 C 9.2071563 6.0029531 9.6732812 6.5389531 9.8632812 7.0019531 L 8.5703125 7.0019531 L 8 7 C 7.118 6.987 7 7.8559844 7 8.0839844 L 7 8.9121094 C 7 9.1441094 7.2067812 10.01 8.1757812 10 C 8.4587812 9.997 8.976 9.8362656 9 9.8222656 L 8.9785156 9 L 8 9 L 8.0214844 8 L 10 8 L 10 10.380859 C 9.94 10.436859 9.2914219 10.961047 8.1074219 10.998047 C 7.7854219 11.008047 6.132 11.038063 6 8.9140625 L 6 8.0917969 C 6 7.7367969 5.9581563 5.9999531 8.0351562 6.0019531 z M 12 7 L 12 8 L 12.5 8 C 12.776 8 13 7.776 13 7.5 C 13 7.224 12.776 7 12.5 7 L 12 7 z M 15.992188 7.3535156 L 15.568359 9 L 16.419922 9 L 15.992188 7.3535156 z M 8.5 13 C 8.776 13 9 13.224 9 13.5 L 9 15 L 10.5 15 C 10.776 15 11 15.224 11 15.5 C 11 15.776 10.776 16 10.5 16 L 9 16 L 9 17.5 C 9 17.776 8.776 18 8.5 18 C 8.224 18 8 17.776 8 17.5 L 8 16 L 6.5 16 C 6.224 16 6 15.776 6 15.5 C 6 15.224 6.224 15 6.5 15 L 8 15 L 8 13.5 C 8 13.224 8.224 13 8.5 13 z M 13.5 15 L 17.5 15 C 17.776 15 18 15.224 18 15.5 C 18 15.776 17.776 16 17.5 16 L 13.5 16 C 13.224 16 13 15.776 13 15.5 C 13 15.224 13.224 15 13.5 15 z"/></svg>